<svg xmlns="http://www.w3.org/2000/svg" width="464" height="274" viewBox="0 0 464 274"><polygon fill="#B5DBE8" points="172.732,54.277 163.875,49.092 157.638,57.242 148.781,52.057 142.543,60.205 133.689,55.018 127.452,63.168 118.596,57.982 112.357,66.133 103.502,60.947 97.266,69.098 88.602,64.861 119.635,222.906 315.859,184.377"/><path fill="#85C9DE" stroke="#CCE6EE" stroke-width="2" stroke-miterlimit="10" d="M335.508 48.672l-8.637-7.629-8.635 7.629-8.637-7.629-8.632 7.629-8.635-7.629-8.633 7.629-8.634-7.629-8.633 7.629-8.633-7.629-8.633 7.629-8.631-7.629-8.631 7.629-8.633-7.629-8.632 7.629-8.632-7.629-8.633 7.629-8.633-7.629-8.631 7.629-8.632-7.629-8.632 7.629-8.633-7.629-8.631 7.629-8.633-7.629-8.631 7.629-8.627-6.539v180.773h224.448v-181.863l-8.631 7.629zm-7.707 148.631h-191.76v-134.561h191.76v134.561z"/><path fill="#fff" d="M327.801 197.303h-191.76v-134.561h191.76v134.561z"/><path fill="#85C9DE" d="M312.73 110.502h-160.527v10.896h160.527v-10.896zm-112.134 20.383h-48.393v10.896h48.393v-10.896zm0 20.703h-48.393v10.896h48.393v-10.896zm112.134-20.703h-48.396v10.896h48.396v-10.896zm0 20.703h-48.396v10.896h48.396v-10.896zm0 20.703h-160.527v10.893h160.527v-10.893zm-59.199-41.406h-42.675v31.6h42.675v-31.6zm-18.904-31.371l-5.707-24.041h6.254l2.979 16.66 3.337-16.66h6.096l2.953 16.35 3.082-16.35h5.979l-6.207 24.041h-6.187l-2.953-15.9-3.369 15.9h-6.257zm-7.182-4.901h-9.658v-5.033h8.646v-4.869h-8.646v-4.336h9.17v-4.902h-15.048v24.041h15.536v-4.901zm40.346.348c-1.859 0-4.016-.535-5.768-1.434l-.308-.156-1.215 4.93.185.102c1.274.703 3.944 1.463 6.791 1.463 7.199 0 9.754-4.074 9.754-7.559 0-3.371-1.994-5.68-6.275-7.264-3.139-1.189-4.182-1.797-4.182-3.057 0-1.211 1.233-1.992 3.145-1.992 1.682 0 3.295.365 4.797 1.088l.294.141 1.335-4.824-.213-.098c-1.783-.803-3.84-1.211-6.109-1.211-5.479 0-9.162 2.953-9.162 7.35 0 3.242 2.23 5.662 6.631 7.195 2.81 1.006 3.759 1.775 3.759 3.055-.002 1.443-1.262 2.271-3.459 2.271zm-74.514-11.887l8.562 16.439h6.01v-24.04h-5.426v14.736l-7.936-14.736h-6.637v24.041h5.426l.001-16.44z"/><path fill="#F37C44" stroke="#CCE6EE" stroke-width="2" stroke-miterlimit="10" d="M363.758 141.641s-.521-1.363.357-2.209c1.799-1.731-.549-8.182-2.924-7.479 0 0-50.566 14.791-60.381 40.118-5.478 1.103-9.143 3.683-11.117 5.474-26.153-7.252-68.236 24.213-68.236 24.213-1.984 1.479 1.762 7.229 4.227 6.832 1.201-.196 1.98 1.039 1.98 1.039 12.221 17.955 16.545 22.705 23.438 26.74l15.707 2.149s12.631-2.311 22.637-11.307c8.345-7.5 10.15-14.176 10.15-14.176 3.172-10.354-2.049-22.43-5.99-29.479 1.978-1.65 5.195-3.714 9.738-4.771 3.281 7.389 9.791 18.743 19.939 22.416 0 0 6.42 2.562 17.43.396 13.201-2.6 22.639-11.309 22.639-11.309s6.797-5.916 7.711-13.85c.912-7.93-.29-14.243-7.305-34.797z"/><path fill="#fff" d="M235.018 206.326c3.609-5.588 19.342-13.631 19.342-13.631 14.638-7.396 23.859-9.168 31.787-7.891 10.642 17.727 6.713 26.405 6.713 26.405-.006.002-1.646 5.022-8.079 10.808-2.484 2.233-5.437 4.213-8.771 5.879-5.662 2.826-10.412 3.748-10.46 3.758 0 0-5.829.977-10.921-1.312-9.713-4.363-19.611-24.016-19.611-24.016z"/><path fill="#fff" d="M356.701 145.539c-6.637-.471-22.516 7.279-22.516 7.279-14.703 7.26-21.658 13.57-25.4 20.676 7.783 19.154 17.086 21.227 17.086 21.227h-.002c.006-.004 5.008 1.701 13.496.029 3.277-.645 6.63-1.816 9.964-3.482 5.661-2.828 9.251-6.074 9.286-6.104 0 0 4.283-4.074 5.512-9.521 2.344-10.387-7.426-30.104-7.426-30.104z"/><rect x="15" y="15" stroke="#fff" stroke-width="2" stroke-miterlimit="10" width="434" height="244" fill="none"/></svg>